<svg width="161.000000" height="161.000000" viewBox="0 0 161 161" fill="none"
	xmlns="http://www.w3.org/2000/svg"
	xmlns:xlink="http://www.w3.org/1999/xlink">
	<defs/>
	<g opacity="0.280000">
		<path id="Vector" d="M78.72 32.59C80.54 32.59 82 34.07 82 35.86L82 124.77C82 126.59 80.51 128.05 78.72 128.05C76.9 128.05 75.45 126.56 75.45 124.77L75.45 35.89C75.45 34.07 76.93 32.62 78.72 32.62L78.72 32.59Z" fill="#FFFFFF" fill-opacity="1.000000" fill-rule="evenodd"/>
		<path id="Vector" d="M82 35.86L82 124.77C82 126.59 80.51 128.05 78.72 128.05C76.9 128.05 75.45 126.56 75.45 124.77L75.45 35.89C75.45 34.07 76.93 32.62 78.72 32.62L78.72 32.59C80.54 32.59 82 34.07 82 35.86Z" stroke="#232627" stroke-opacity="1.000000" stroke-width="1.000000"/>
		<path id="Vector" d="M78.72 128.77C76.51 128.77 74.72 126.98 74.72 124.77L74.72 35.89C74.72 33.68 76.51 31.89 78.72 31.89C80.93 31.89 82.72 33.68 82.72 35.89L82.72 124.8C82.72 127.01 80.93 128.8 78.72 128.8L78.72 128.77ZM78.72 33.29C77.29 33.29 76.15 34.43 76.15 35.86L76.15 124.77C76.15 126.2 77.29 127.35 78.72 127.35C80.15 127.35 81.3 126.2 81.3 124.77L81.3 35.89C81.3 34.46 80.15 33.32 78.72 33.32L78.72 33.29Z" fill="#2D1A08" fill-opacity="0.900000" fill-rule="nonzero"/>
		<path id="Vector" d="M74.72 124.77L74.72 35.89C74.72 33.68 76.51 31.89 78.72 31.89C80.93 31.89 82.72 33.68 82.72 35.89L82.72 124.8C82.72 127.01 80.93 128.8 78.72 128.8L78.72 128.77C76.51 128.77 74.72 126.98 74.72 124.77ZM76.15 35.86L76.15 124.77C76.15 126.2 77.29 127.35 78.72 127.35C80.15 127.35 81.3 126.2 81.3 124.77L81.3 35.89C81.3 34.46 80.15 33.32 78.72 33.32L78.72 33.29C77.29 33.29 76.15 34.43 76.15 35.86Z" stroke="#232627" stroke-opacity="1.000000" stroke-width="1.000000"/>
		<path id="Vector" d="M126.48 80.34C126.48 82.16 125 83.65 123.21 83.65L34.26 83.65C32.44 83.65 30.99 82.16 30.99 80.34C30.99 78.53 32.47 77.07 34.26 77.07L123.18 77.07C125 77.07 126.45 78.55 126.45 80.34L126.48 80.34Z" fill="#FFFFFF" fill-opacity="1.000000" fill-rule="evenodd"/>
		<path id="Vector" d="M123.21 83.65L34.26 83.65C32.44 83.65 30.99 82.16 30.99 80.34C30.99 78.53 32.47 77.07 34.26 77.07L123.18 77.07C125 77.07 126.45 78.55 126.45 80.34L126.48 80.34C126.48 82.16 125 83.65 123.21 83.65Z" stroke="#232627" stroke-opacity="1.000000" stroke-width="1.000000"/>
		<path id="Vector" d="M123.18 84.35L34.26 84.35C32.05 84.35 30.26 82.55 30.26 80.34C30.26 78.13 32.05 76.34 34.26 76.34L123.18 76.34C125.39 76.34 127.18 78.13 127.18 80.34C127.18 82.55 125.39 84.35 123.18 84.35ZM34.26 77.77C32.84 77.77 31.69 78.92 31.69 80.34C31.69 81.77 32.84 82.92 34.26 82.92L123.18 82.92C124.61 82.92 125.76 81.77 125.76 80.34C125.76 78.92 124.61 77.77 123.18 77.77L34.26 77.77Z" fill="#2D1A08" fill-opacity="0.900000" fill-rule="nonzero"/>
		<path id="Vector" d="M34.26 84.35C32.05 84.35 30.26 82.55 30.26 80.34C30.26 78.13 32.05 76.34 34.26 76.34L123.18 76.34C125.39 76.34 127.18 78.13 127.18 80.34C127.18 82.55 125.39 84.35 123.18 84.35L34.26 84.35ZM31.69 80.34C31.69 81.77 32.84 82.92 34.26 82.92L123.18 82.92C124.61 82.92 125.76 81.77 125.76 80.34C125.76 78.92 124.61 77.77 123.18 77.77L34.26 77.77C32.84 77.77 31.69 78.92 31.69 80.34Z" stroke="#232627" stroke-opacity="1.000000" stroke-width="1.000000"/>
		<path id="Vector" d="M78.72 121.86C101.61 121.86 120.27 103.2 120.27 80.32C120.27 57.43 101.61 38.77 78.72 38.77C55.83 38.77 37.17 57.43 37.17 80.32C37.17 103.2 55.83 121.86 78.72 121.86Z" fill="#FFFFFF" fill-opacity="1.000000" fill-rule="evenodd"/>
		<path id="Vector" d="M120.27 80.32C120.27 57.43 101.61 38.77 78.72 38.77C55.83 38.77 37.17 57.43 37.17 80.32C37.17 103.2 55.83 121.86 78.72 121.86C101.61 121.86 120.27 103.2 120.27 80.32Z" stroke="#232627" stroke-opacity="1.000000" stroke-width="1.000000"/>
		<path id="Vector" d="M78.72 122.59C55.42 122.59 36.45 103.62 36.45 80.34C36.45 57.07 55.42 38.07 78.72 38.07C102.03 38.07 121 57.04 121 80.34C121 103.65 102.03 122.59 78.72 122.59ZM78.72 39.5C56.2 39.5 37.87 57.82 37.87 80.34C37.87 102.87 56.2 121.16 78.72 121.16C101.25 121.16 119.57 102.84 119.57 80.34C119.57 57.85 101.25 39.5 78.72 39.5Z" fill="#2D1A08" fill-opacity="0.900000" fill-rule="nonzero"/>
		<path id="Vector" d="M36.45 80.34C36.45 57.07 55.42 38.07 78.72 38.07C102.03 38.07 121 57.04 121 80.34C121 103.65 102.03 122.59 78.72 122.59C55.42 122.59 36.45 103.62 36.45 80.34ZM37.87 80.34C37.87 102.87 56.2 121.16 78.72 121.16C101.25 121.16 119.57 102.84 119.57 80.34C119.57 57.85 101.25 39.5 78.72 39.5C56.2 39.5 37.87 57.82 37.87 80.34Z" stroke="#232627" stroke-opacity="1.000000" stroke-width="1.000000"/>
		<path id="Vector" d="M107.04 34.49L128.64 56.09C130.12 57.57 132.55 57.57 134.04 56.09L156.42 33.71L129.39 6.71L107.01 29.09C105.53 30.57 105.53 33.01 107.01 34.49L107.04 34.49Z" fill="#FFFFFF" fill-opacity="1.000000" fill-rule="evenodd"/>
		<path id="Vector" d="M128.64 56.09C130.12 57.57 132.55 57.57 134.04 56.09L156.42 33.71L129.39 6.71L107.01 29.09C105.53 30.57 105.53 33.01 107.01 34.49L107.04 34.49L128.64 56.09Z" stroke="#232627" stroke-opacity="1.000000" stroke-width="1.000000"/>
		<path id="Vector" d="M131.32 57.94C130.12 57.94 128.97 57.46 128.11 56.62L106.51 35.02C105.64 34.18 105.19 33.04 105.19 31.83C105.19 30.63 105.67 29.48 106.51 28.62L129.39 5.7L157.4 33.71L134.51 56.59C133.67 57.46 132.53 57.91 131.3 57.91L131.32 57.94ZM129.39 7.74L107.51 29.62C106.93 30.21 106.62 30.99 106.62 31.8C106.62 32.64 106.93 33.43 107.51 33.99L129.11 55.59C130.29 56.76 132.33 56.76 133.5 55.59L155.39 33.71L129.39 7.72L129.39 7.74Z" fill="#2D1A08" fill-opacity="0.900000" fill-rule="nonzero"/>
		<path id="Vector" d="M128.11 56.62L106.51 35.02C105.64 34.18 105.19 33.04 105.19 31.83C105.19 30.63 105.67 29.48 106.51 28.62L129.39 5.7L157.4 33.71L134.51 56.59C133.67 57.46 132.53 57.91 131.3 57.91L131.32 57.94C130.12 57.94 128.97 57.46 128.11 56.62ZM107.51 29.62C106.93 30.21 106.62 30.99 106.62 31.8C106.62 32.64 106.93 33.43 107.51 33.99L129.11 55.59C130.29 56.76 132.33 56.76 133.5 55.59L155.39 33.71L129.39 7.72L129.39 7.74L107.51 29.62Z" stroke="#232627" stroke-opacity="1.000000" stroke-width="1.000000"/>
		<path id="Vector" d="M134.01 5.62L157.51 29.12C159 30.6 160.48 33.4 157.82 34.21L155.11 35.05L128.08 8.02L128.92 5.31C129.81 2.35 132.53 4.14 134.01 5.62Z" fill="#FFFFFF" fill-opacity="1.000000" fill-rule="evenodd"/>
		<path id="Vector" d="M157.51 29.12C159 30.6 160.48 33.4 157.82 34.21L155.11 35.05L128.08 8.02L128.92 5.31C129.81 2.35 132.53 4.14 134.01 5.62L157.51 29.12Z" stroke="#232627" stroke-opacity="1.000000" stroke-width="1.000000"/>
		<path id="Vector" d="M154.88 35.83L127.29 8.25L128.25 5.11C128.81 3.3 129.98 3.02 130.65 3.02C132.25 3.02 133.9 4.5 134.51 5.14L158.02 28.64C159.13 29.76 160.31 31.61 159.92 33.15C159.78 33.74 159.33 34.55 158.02 34.91L154.88 35.86L154.88 35.83ZM128.89 7.83L155.3 34.24L157.62 33.54C158.41 33.29 158.52 32.9 158.55 32.78C158.74 32.06 158.07 30.71 157.01 29.65L133.5 6.12C132.47 5.09 131.35 4.42 130.65 4.42C130.46 4.42 129.95 4.42 129.62 5.51L128.92 7.83L128.89 7.83Z" fill="#2D1A08" fill-opacity="0.900000" fill-rule="nonzero"/>
		<path id="Vector" d="M127.29 8.25L128.25 5.11C128.81 3.3 129.98 3.02 130.65 3.02C132.25 3.02 133.9 4.5 134.51 5.14L158.02 28.64C159.13 29.76 160.31 31.61 159.92 33.15C159.78 33.74 159.33 34.55 158.02 34.91L154.88 35.86L154.88 35.83L127.29 8.25ZM155.3 34.24L157.62 33.54C158.41 33.29 158.52 32.9 158.55 32.78C158.74 32.06 158.07 30.71 157.01 29.65L133.5 6.12C132.47 5.09 131.35 4.42 130.65 4.42C130.46 4.42 129.95 4.42 129.62 5.51L128.92 7.83L128.89 7.83L155.3 34.24Z" stroke="#232627" stroke-opacity="1.000000" stroke-width="1.000000"/>
		<path id="Vector" d="M52.95 125.5L31.35 103.9C29.87 102.42 27.44 102.42 25.95 103.9L3.57 126.28L30.57 153.28L52.95 130.9C54.44 129.42 54.44 126.98 52.95 125.5Z" fill="#FFFFFF" fill-opacity="1.000000" fill-rule="evenodd"/>
		<path id="Vector" d="M31.35 103.9C29.87 102.42 27.44 102.42 25.95 103.9L3.57 126.28L30.57 153.28L52.95 130.9C54.44 129.42 54.44 126.98 52.95 125.5L31.35 103.9Z" stroke="#232627" stroke-opacity="1.000000" stroke-width="1.000000"/>
		<path id="Vector" d="M30.57 154.29L2.56 126.26L25.45 103.37C27.16 101.66 30.15 101.66 31.86 103.37L53.46 124.97C55.22 126.73 55.22 129.61 53.46 131.38L30.57 154.26L30.57 154.29ZM4.58 126.26L30.57 152.25L52.45 130.37C53.65 129.16 53.65 127.18 52.45 125.98L30.85 104.38C29.67 103.2 27.63 103.2 26.46 104.38L4.58 126.26Z" fill="#2D1A08" fill-opacity="0.900000" fill-rule="nonzero"/>
		<path id="Vector" d="M2.56 126.26L25.45 103.37C27.16 101.66 30.15 101.66 31.86 103.37L53.46 124.97C55.22 126.73 55.22 129.61 53.46 131.38L30.57 154.26L30.57 154.29L2.56 126.26ZM30.57 152.25L52.45 130.37C53.65 129.16 53.65 127.18 52.45 125.98L30.85 104.38C29.67 103.2 27.63 103.2 26.46 104.38L4.58 126.26L30.57 152.25Z" stroke="#232627" stroke-opacity="1.000000" stroke-width="1.000000"/>
		<path id="Vector" d="M25.98 154.37L2.48 130.87C1 129.39 -0.49 126.59 2.17 125.78L4.88 124.94L31.88 151.94L31.07 154.65C30.18 157.62 27.46 155.83 25.98 154.34L25.98 154.37Z" fill="#FFFFFF" fill-opacity="1.000000" fill-rule="evenodd"/>
		<path id="Vector" d="M2.48 130.87C1 129.39 -0.49 126.59 2.17 125.78L4.88 124.94L31.88 151.94L31.07 154.65C30.18 157.62 27.46 155.83 25.98 154.34L25.98 154.37L2.48 130.87Z" stroke="#232627" stroke-opacity="1.000000" stroke-width="1.000000"/>
		<path id="Vector" d="M29.34 157C27.74 157 26.09 155.52 25.48 154.88L1.97 131.38C0.86 130.25 -0.32 128.41 0.07 126.9C0.21 126.31 0.66 125.5 1.97 125.11L5.11 124.16L32.72 151.77L31.77 154.9C31.21 156.72 30.04 157 29.37 157L29.34 157ZM4.69 125.75L2.37 126.45C1.56 126.7 1.47 127.09 1.44 127.21C1.25 127.93 1.92 129.28 2.98 130.34L26.48 153.84C27.52 154.88 28.64 155.55 29.34 155.55C29.53 155.55 30.04 155.55 30.37 154.46L31.07 152.13L4.69 125.75Z" fill="#2D1A08" fill-opacity="0.900000" fill-rule="nonzero"/>
		<path id="Vector" d="M25.48 154.88L1.97 131.38C0.86 130.25 -0.32 128.41 0.07 126.9C0.21 126.31 0.66 125.5 1.97 125.11L5.11 124.16L32.72 151.77L31.77 154.9C31.21 156.72 30.04 157 29.37 157L29.34 157C27.74 157 26.09 155.52 25.48 154.88ZM2.37 126.45C1.56 126.7 1.47 127.09 1.44 127.21C1.25 127.93 1.92 129.28 2.98 130.34L26.48 153.84C27.52 154.88 28.64 155.55 29.34 155.55C29.53 155.55 30.04 155.55 30.37 154.46L31.07 152.13L4.69 125.75L2.37 126.45Z" stroke="#232627" stroke-opacity="1.000000" stroke-width="1.000000"/>
		<path id="Vector" d="M125.5 107.04L103.9 128.63C102.42 130.12 102.42 132.55 103.9 134.03L126.29 156.41L153.29 129.42L130.9 107.04C129.42 105.55 126.99 105.55 125.5 107.04Z" fill="#FFFFFF" fill-opacity="1.000000" fill-rule="evenodd"/>
		<path id="Vector" d="M103.9 128.63C102.42 130.12 102.42 132.55 103.9 134.03L126.29 156.41L153.29 129.42L130.9 107.04C129.42 105.55 126.99 105.55 125.5 107.04L103.9 128.63Z" stroke="#232627" stroke-opacity="1.000000" stroke-width="1.000000"/>
		<path id="Vector" d="M126.26 157.42L103.37 134.54C101.61 132.77 101.61 129.89 103.37 128.13L124.97 106.53C126.68 104.83 129.67 104.83 131.38 106.53L154.27 129.42L126.26 157.42ZM128.19 106.64C127.35 106.64 126.57 106.98 126.01 107.54L104.41 129.14C103.2 130.34 103.2 132.33 104.41 133.53L126.29 155.41L152.28 129.42L130.4 107.54C129.81 106.95 129.03 106.64 128.22 106.64L128.19 106.64Z" fill="#2D1A08" fill-opacity="0.900000" fill-rule="nonzero"/>
		<path id="Vector" d="M103.37 134.54C101.61 132.77 101.61 129.89 103.37 128.13L124.97 106.53C126.68 104.83 129.67 104.83 131.38 106.53L154.27 129.42L126.26 157.42L103.37 134.54ZM126.01 107.54L104.41 129.14C103.2 130.34 103.2 132.33 104.41 133.53L126.29 155.41L152.28 129.42L130.4 107.54C129.81 106.95 129.03 106.64 128.22 106.64L128.19 106.64C127.35 106.64 126.57 106.98 126.01 107.54Z" stroke="#232627" stroke-opacity="1.000000" stroke-width="1.000000"/>
		<path id="Vector" d="M154.38 134L130.88 157.5C129.39 158.99 126.6 160.47 125.78 157.81L124.97 155.1L151.97 128.1L154.69 128.94C157.65 129.84 155.86 132.55 154.38 134.03L154.38 134Z" fill="#FFFFFF" fill-opacity="1.000000" fill-rule="evenodd"/>
		<path id="Vector" d="M130.88 157.5C129.39 158.99 126.6 160.47 125.78 157.81L124.97 155.1L151.97 128.1L154.69 128.94C157.65 129.84 155.86 132.55 154.38 134.03L154.38 134L130.88 157.5Z" stroke="#232627" stroke-opacity="1.000000" stroke-width="1.000000"/>
		<path id="Vector" d="M127.49 160C126.82 160 125.62 159.74 125.08 158.04L124.13 154.9L151.75 127.29L154.88 128.24C156.28 128.66 156.76 129.47 156.92 130.06C157.37 131.79 155.64 133.75 154.88 134.51L131.38 158.01C130.43 158.96 128.89 160 127.52 160L127.49 160ZM125.76 155.3L126.45 157.62C126.71 158.46 127.15 158.57 127.49 158.57C128.25 158.57 129.42 157.92 130.34 157L153.85 133.5C155.02 132.33 155.69 131.1 155.53 130.42C155.44 130.09 155.08 129.81 154.46 129.61L152.14 128.91L125.73 155.32L125.76 155.3Z" fill="#2D1A08" fill-opacity="0.900000" fill-rule="nonzero"/>
		<path id="Vector" d="M125.08 158.04L124.13 154.9L151.75 127.29L154.88 128.24C156.28 128.66 156.76 129.47 156.92 130.06C157.37 131.79 155.64 133.75 154.88 134.51L131.38 158.01C130.43 158.96 128.89 160 127.52 160L127.49 160C126.82 160 125.62 159.74 125.08 158.04ZM126.45 157.62C126.71 158.46 127.15 158.57 127.49 158.57C128.25 158.57 129.42 157.92 130.34 157L153.85 133.5C155.02 132.33 155.69 131.1 155.53 130.42C155.44 130.09 155.08 129.81 154.46 129.61L152.14 128.91L125.73 155.32L125.76 155.3L126.45 157.62Z" stroke="#232627" stroke-opacity="1.000000" stroke-width="1.000000"/>
		<path id="Vector" d="M34.49 52.96L56.09 31.36C57.57 29.87 57.57 27.44 56.09 25.96L33.73 3.58L6.7 30.6L29.09 52.98C30.57 54.47 33 54.47 34.49 52.98L34.49 52.96Z" fill="#FFFFFF" fill-opacity="1.000000" fill-rule="evenodd"/>
		<path id="Vector" d="M56.09 31.36C57.57 29.87 57.57 27.44 56.09 25.96L33.73 3.58L6.7 30.6L29.09 52.98C30.57 54.47 33 54.47 34.49 52.98L34.49 52.96L56.09 31.36Z" stroke="#232627" stroke-opacity="1.000000" stroke-width="1.000000"/>
		<path id="Vector" d="M31.8 54.8C30.6 54.8 29.45 54.33 28.58 53.49L5.7 30.6L33.73 2.57L56.62 25.45C57.49 26.29 57.93 27.44 57.93 28.64C57.93 29.85 57.46 30.99 56.62 31.86L35.02 53.46C34.18 54.33 33.03 54.77 31.83 54.77L31.8 54.8ZM7.71 30.6L29.59 52.48C30.77 53.65 32.81 53.65 33.98 52.48L55.58 30.88C56.17 30.29 56.48 29.51 56.48 28.7C56.48 27.89 56.17 27.08 55.58 26.52L33.73 4.58L7.71 30.6Z" fill="#2D1A08" fill-opacity="0.900000" fill-rule="nonzero"/>
		<path id="Vector" d="M28.58 53.49L5.7 30.6L33.73 2.57L56.62 25.45C57.49 26.29 57.93 27.44 57.93 28.64C57.93 29.85 57.46 30.99 56.62 31.86L35.02 53.46C34.18 54.33 33.03 54.77 31.83 54.77L31.8 54.8C30.6 54.8 29.45 54.33 28.58 53.49ZM29.59 52.48C30.77 53.65 32.81 53.65 33.98 52.48L55.58 30.88C56.17 30.29 56.48 29.51 56.48 28.7C56.48 27.89 56.17 27.08 55.58 26.52L33.73 4.58L7.71 30.6L29.59 52.48Z" stroke="#232627" stroke-opacity="1.000000" stroke-width="1.000000"/>
		<path id="Vector" d="M5.61 25.99L29.11 2.48C30.6 1 33.4 -0.48 34.21 2.18L35.05 4.89L8.02 31.92L5.3 31.11C2.34 30.21 4.13 27.5 5.61 26.01L5.61 25.99Z" fill="#FFFFFF" fill-opacity="1.000000" fill-rule="evenodd"/>
		<path id="Vector" d="M29.11 2.48C30.6 1 33.4 -0.48 34.21 2.18L35.05 4.89L8.02 31.92L5.3 31.11C2.34 30.21 4.13 27.5 5.61 26.01L5.61 25.99L29.11 2.48Z" stroke="#232627" stroke-opacity="1.000000" stroke-width="1.000000"/>
		<path id="Vector" d="M8.21 32.7L5.08 31.75C3.68 31.33 3.21 30.52 3.04 29.93C2.62 28.2 4.33 26.24 5.08 25.48L28.61 1.98C29.56 1.03 31.1 0 32.47 0C33.14 0 34.35 0.25 34.88 1.98L35.83 5.11L8.21 32.7ZM32.5 1.42C31.75 1.42 30.57 2.07 29.65 2.99L6.12 26.49C4.94 27.66 4.27 28.9 4.44 29.57C4.52 29.9 4.88 30.18 5.5 30.38L7.82 31.08L34.23 4.7L33.54 2.37C33.28 1.53 32.84 1.42 32.5 1.42Z" fill="#2D1A08" fill-opacity="0.900000" fill-rule="nonzero"/>
		<path id="Vector" d="M5.08 31.75C3.68 31.33 3.21 30.52 3.04 29.93C2.62 28.2 4.33 26.24 5.08 25.48L28.61 1.98C29.56 1.03 31.1 0 32.47 0C33.14 0 34.35 0.25 34.88 1.98L35.83 5.11L8.21 32.7L5.08 31.75ZM29.65 2.99L6.12 26.49C4.94 27.66 4.27 28.9 4.44 29.57C4.52 29.9 4.88 30.18 5.5 30.38L7.82 31.08L34.23 4.7L33.54 2.37C33.28 1.53 32.84 1.42 32.5 1.42C31.75 1.42 30.57 2.07 29.65 2.99Z" stroke="#232627" stroke-opacity="1.000000" stroke-width="1.000000"/>
	</g>
</svg>
